<svg id="svg" version="1.1" xmlns="http://www.w3.org/2000/svg" xmlns:xlink="http://www.w3.org/1999/xlink" width="400" height="400" viewBox="0, 0, 400,400"><g id="svgg"><path id="path0" d="M227.685 24.227 C 217.719 25.032,204.614 27.584,196.071 30.384 C 193.360 31.273,190.958 32.000,190.734 32.000 C 188.655 32.000,169.400 40.901,160.413 46.016 C 94.639 83.454,60.379 161.445,86.706 213.805 C 93.716 227.746,106.256 240.773,115.950 244.184 C 121.262 246.053,120.746 244.685,113.253 237.030 C 88.405 211.644,81.001 179.442,91.975 144.494 C 104.557 104.428,131.591 73.281,173.200 50.911 C 181.012 46.712,196.775 41.010,207.600 38.470 C 230.308 33.140,257.154 33.360,275.712 39.028 C 296.941 45.513,310.833 53.843,326.802 69.663 C 337.275 80.038,343.150 88.184,350.770 102.895 C 353.732 108.614,360.400 124.314,360.400 125.569 C 360.400 125.762,361.194 128.683,362.164 132.060 C 370.531 161.180,370.546 201.063,362.200 227.979 C 361.685 229.641,360.698 233.148,360.007 235.772 C 358.573 241.221,358.476 241.443,356.281 244.327 C 353.211 248.359,353.529 249.942,360.197 263.800 C 361.891 267.320,363.693 271.280,364.203 272.600 C 365.093 274.909,366.940 279.121,370.605 287.200 C 371.553 289.290,373.255 293.250,374.387 296.000 C 381.436 313.125,382.327 314.544,386.355 315.085 C 391.414 315.763,391.132 310.860,385.360 297.800 C 383.902 294.500,381.911 289.910,380.937 287.600 C 378.317 281.386,367.869 260.625,364.663 255.262 C 360.558 248.393,360.452 246.846,363.811 242.800 C 370.230 235.068,375.677 219.160,379.015 198.400 C 380.283 190.514,380.315 164.378,379.066 157.000 C 378.731 155.020,377.975 150.430,377.387 146.800 C 376.798 143.170,375.882 138.580,375.349 136.600 C 374.817 134.620,373.759 130.660,372.998 127.800 C 369.177 113.437,359.638 92.601,352.449 82.915 C 351.014 80.982,348.333 77.330,346.491 74.800 C 338.044 63.195,324.986 51.181,312.544 43.566 C 285.808 27.202,260.962 21.539,227.685 24.227 M213.289 105.868 C 212.369 106.238,211.319 108.927,210.426 113.200 C 208.628 121.803,204.711 127.601,197.575 132.216 C 192.122 135.743,190.936 137.480,192.183 140.108 C 195.572 147.249,210.467 138.244,216.432 125.448 C 220.672 116.351,218.644 103.716,213.289 105.868 M180.534 145.829 C 178.570 147.793,180.343 151.523,183.666 152.418 C 189.115 153.885,190.868 147.555,185.597 145.445 C 183.251 144.507,181.743 144.621,180.534 145.829 M139.333 147.030 C 137.450 148.914,138.472 152.389,141.348 153.876 C 144.797 155.660,148.076 151.897,146.016 148.519 C 144.453 145.955,141.146 145.218,139.333 147.030 M246.200 148.378 C 241.465 150.080,223.762 159.920,218.338 163.864 C 207.543 171.713,205.793 175.073,208.996 181.800 C 215.761 196.006,234.499 195.402,248.388 180.530 C 253.976 174.546,256.602 166.092,256.567 154.200 C 256.550 148.516,252.359 146.163,246.200 148.378 M126.549 149.579 C 125.476 150.032,124.458 151.499,122.927 154.800 C 121.309 158.288,119.095 160.983,115.331 164.045 C 110.678 167.831,109.879 169.138,111.432 170.427 C 116.404 174.553,132.796 159.903,131.420 152.565 C 130.949 150.054,128.697 148.673,126.549 149.579 M244.189 161.987 C 247.133 165.241,240.692 175.621,233.571 179.097 C 226.841 182.382,222.304 182.142,219.497 178.351 C 217.239 175.302,218.650 173.386,226.233 169.200 C 241.336 160.863,242.682 160.322,244.189 161.987 M145.200 185.085 C 144.430 185.171,141.010 185.676,137.600 186.207 C 134.190 186.739,128.970 187.366,126.000 187.602 C 113.950 188.557,108.739 193.981,112.583 201.566 C 121.761 219.679,152.367 215.402,154.888 195.654 C 155.950 187.336,153.078 184.203,145.200 185.085 M142.599 194.574 C 145.121 195.628,144.844 198.473,141.980 200.924 C 137.053 205.142,126.954 204.626,123.025 199.956 C 120.397 196.833,121.969 195.696,129.661 195.158 C 132.817 194.937,136.210 194.609,137.200 194.428 C 139.981 193.921,141.110 193.952,142.599 194.574 M25.341 238.771 C 22.874 240.275,22.537 245.314,24.510 251.200 C 25.926 255.423,29.000 263.571,29.716 265.000 C 30.047 265.660,31.631 268.990,33.236 272.400 C 39.988 286.744,51.366 305.912,58.966 315.750 C 63.541 321.670,63.566 321.712,63.584 323.411 C 63.606 325.564,62.873 326.488,59.656 328.367 C 51.871 332.914,37.243 343.437,28.262 350.951 C 25.600 353.178,19.817 357.901,15.411 361.446 C 6.775 368.395,5.600 369.755,5.600 372.802 C 5.600 379.740,13.720 380.497,100.400 381.632 C 118.330 381.867,134.890 382.129,137.200 382.214 C 139.510 382.300,146.440 382.567,152.600 382.807 C 177.001 383.758,187.618 384.072,212.400 384.575 C 237.245 385.079,238.311 385.132,241.200 386.003 C 246.757 387.679,257.477 386.433,262.193 383.564 C 264.067 382.424,268.034 379.346,275.485 373.252 C 277.198 371.851,280.490 369.432,282.800 367.877 C 285.110 366.321,288.620 363.856,290.600 362.398 C 296.310 358.194,310.584 348.760,317.273 344.769 C 326.101 339.504,326.838 338.637,325.986 334.531 C 324.908 329.341,328.285 328.367,341.114 330.167 C 350.835 331.531,354.400 330.874,354.400 327.718 C 354.400 322.797,350.269 320.998,338.074 320.606 C 334.092 320.478,330.548 320.145,328.982 319.751 C 325.473 318.870,323.478 319.250,318.843 321.684 C 308.526 327.100,281.868 337.478,271.774 340.007 C 264.067 341.937,262.713 340.305,268.078 335.550 C 274.296 330.039,288.848 315.410,291.106 312.400 C 292.344 310.750,294.651 307.870,296.234 306.000 C 299.429 302.224,302.808 296.876,305.485 291.359 C 310.963 280.069,306.176 274.732,300.187 285.453 C 296.269 292.465,285.064 306.578,281.707 308.730 C 278.328 310.896,277.323 310.998,265.356 310.398 C 253.954 309.826,188.820 310.383,168.800 311.224 C 154.746 311.814,154.991 311.822,151.092 310.600 C 146.534 309.172,145.671 309.408,139.521 313.770 C 129.009 321.226,115.578 326.207,100.028 328.416 C 87.123 330.250,87.063 328.703,99.521 315.326 C 102.315 312.326,106.117 308.056,107.972 305.836 C 109.827 303.616,112.774 300.180,114.522 298.200 C 116.270 296.220,118.527 293.520,119.538 292.200 C 120.548 290.880,122.850 288.090,124.653 286.000 C 139.077 269.282,143.500 262.000,139.232 262.000 C 136.846 262.000,127.205 270.769,119.001 280.400 C 117.034 282.710,112.962 287.300,109.954 290.600 C 106.945 293.900,103.700 297.532,102.742 298.672 C 99.018 303.101,88.188 314.466,86.979 315.213 C 85.465 316.149,84.731 316.192,83.260 315.431 C 82.095 314.828,81.953 314.587,78.894 308.000 C 75.615 300.941,60.259 276.903,51.806 265.600 C 50.243 263.510,47.489 259.730,45.685 257.200 C 33.793 240.522,29.237 236.395,25.341 238.771 M43.829 271.100 C 55.163 284.316,73.263 316.063,70.063 317.115 C 68.791 317.533,59.933 305.629,54.203 295.800 C 52.920 293.600,51.205 290.720,50.391 289.400 C 47.514 284.735,41.200 271.230,41.200 269.741 C 41.200 268.694,42.217 269.220,43.829 271.100 M262.768 320.387 C 268.864 321.268,267.137 325.433,260.086 326.857 C 255.312 327.822,234.895 327.598,229.200 326.519 C 220.949 324.956,210.538 324.003,201.642 323.996 C 191.086 323.988,177.188 322.678,178.091 321.776 C 179.393 320.473,254.808 319.237,262.768 320.387 M70.988 332.245 C 71.343 332.600,72.142 334.013,72.764 335.385 C 75.515 341.452,78.931 341.842,99.200 338.401 C 101.730 337.972,106.000 337.260,108.690 336.820 C 111.379 336.380,116.140 335.295,119.269 334.408 C 122.399 333.521,126.105 332.596,127.506 332.352 C 130.795 331.779,174.786 332.142,179.400 332.780 C 181.160 333.023,189.260 333.386,197.400 333.586 C 210.902 333.918,213.147 334.076,223.000 335.388 C 228.940 336.180,235.960 336.929,238.600 337.053 C 247.175 337.457,248.023 338.047,245.999 342.201 C 239.642 355.251,255.458 356.288,288.400 344.982 C 297.608 341.822,298.543 341.560,300.164 341.682 C 304.349 341.996,300.591 344.981,276.000 360.873 C 274.130 362.081,270.282 364.944,267.449 367.235 C 255.545 376.862,253.045 377.704,243.200 375.407 C 237.736 374.132,229.651 373.635,214.000 373.613 C 201.383 373.595,177.378 372.995,157.800 372.209 C 149.660 371.882,130.400 371.432,115.000 371.210 C 26.865 369.938,26.672 369.932,25.170 368.573 C 23.396 366.967,25.086 365.123,37.578 355.037 C 39.460 353.518,42.170 351.242,43.600 349.981 C 46.015 347.851,47.884 346.389,60.440 336.807 C 67.255 331.606,69.415 330.672,70.988 332.245 " stroke="none" fill="#303030" fill-rule="evenodd"></path><path id="path1" d="M0.000 200.000 L 0.000 400.000 200.000 400.000 L 400.000 400.000 400.000 200.000 L 400.000 0.000 200.000 0.000 L 0.000 0.000 0.000 200.000 M256.716 24.025 C 278.330 26.393,299.154 34.220,317.800 46.985 C 327.834 53.855,339.422 65.089,346.491 74.800 C 348.333 77.330,351.014 80.982,352.449 82.915 C 359.638 92.601,369.177 113.437,372.998 127.800 C 373.759 130.660,374.817 134.620,375.349 136.600 C 375.882 138.580,376.798 143.170,377.387 146.800 C 377.975 150.430,378.731 155.020,379.066 157.000 C 380.315 164.378,380.283 190.514,379.015 198.400 C 375.677 219.160,370.230 235.068,363.811 242.800 C 360.452 246.846,360.558 248.393,364.663 255.262 C 367.869 260.625,378.317 281.386,380.937 287.600 C 381.911 289.910,383.902 294.500,385.360 297.800 C 391.132 310.860,391.414 315.763,386.355 315.085 C 382.327 314.544,381.436 313.125,374.387 296.000 C 373.255 293.250,371.553 289.290,370.605 287.200 C 366.940 279.121,365.093 274.909,364.203 272.600 C 363.693 271.280,361.891 267.320,360.197 263.800 C 353.529 249.942,353.211 248.359,356.281 244.327 C 358.476 241.443,358.573 241.221,360.007 235.772 C 360.698 233.148,361.685 229.641,362.200 227.979 C 370.546 201.063,370.531 161.180,362.164 132.060 C 361.194 128.683,360.400 125.762,360.400 125.569 C 360.400 122.827,350.014 100.598,344.606 91.765 C 336.439 78.426,321.234 62.514,309.200 54.714 C 299.163 48.208,297.214 47.183,286.912 42.988 C 270.710 36.390,262.740 34.998,241.200 35.006 C 220.383 35.014,210.854 36.552,192.800 42.821 C 180.847 46.971,176.955 48.729,165.600 55.109 C 108.776 87.036,75.681 151.771,91.014 201.000 C 95.363 214.961,101.697 225.223,113.253 237.030 C 119.579 243.493,120.487 244.800,118.650 244.800 C 112.342 244.800,97.608 232.209,90.566 220.800 C 77.123 199.018,74.228 169.424,82.770 141.101 C 97.008 93.889,134.573 54.411,184.263 34.437 C 187.598 33.097,190.509 32.000,190.734 32.000 C 190.958 32.000,193.360 31.273,196.071 30.384 C 204.614 27.584,217.719 25.032,227.685 24.227 C 235.816 23.570,251.562 23.461,256.716 24.025 M216.240 106.604 C 222.042 112.405,217.318 129.699,207.892 137.167 C 200.865 142.734,194.036 144.013,192.183 140.108 C 190.936 137.480,192.122 135.743,197.575 132.216 C 204.711 127.601,208.628 121.803,210.426 113.200 C 211.930 106.004,213.668 104.032,216.240 106.604 M185.597 145.445 C 190.868 147.555,189.115 153.885,183.666 152.418 C 180.343 151.523,178.570 147.793,180.534 145.829 C 181.743 144.621,183.251 144.507,185.597 145.445 M144.038 146.619 C 146.506 147.896,147.353 150.488,146.018 152.678 C 144.031 155.937,138.976 154.031,138.504 149.847 C 138.146 146.665,140.956 145.026,144.038 146.619 M253.881 148.384 C 256.632 150.061,257.000 152.299,256.070 161.684 C 253.699 185.616,227.043 201.096,212.770 186.829 C 203.290 177.354,206.513 170.421,225.600 159.231 C 244.045 148.418,250.117 146.089,253.881 148.384 M130.487 150.430 C 134.781 155.599,122.566 170.793,114.014 170.922 C 109.145 170.996,109.580 168.724,115.331 164.045 C 119.095 160.983,121.309 158.288,122.927 154.800 C 125.484 149.286,128.222 147.703,130.487 150.430 M235.972 163.914 C 218.028 173.498,216.739 174.627,219.497 178.351 C 225.307 186.197,243.773 176.378,244.722 164.938 C 245.102 160.357,243.076 160.120,235.972 163.914 M150.396 185.059 C 159.694 186.919,154.866 205.309,143.600 210.945 C 130.911 217.293,110.937 208.552,111.674 196.972 C 112.058 190.937,115.938 188.399,126.000 187.602 C 128.970 187.366,134.190 186.739,137.600 186.207 C 146.717 184.787,148.316 184.643,150.396 185.059 M137.200 194.428 C 136.210 194.609,132.817 194.937,129.661 195.158 C 121.969 195.696,120.397 196.833,123.025 199.956 C 127.858 205.701,141.386 204.712,143.990 198.424 C 145.380 195.069,142.614 193.441,137.200 194.428 M29.800 238.763 C 32.489 240.015,37.953 246.357,45.685 257.200 C 47.489 259.730,50.243 263.510,51.806 265.600 C 60.259 276.903,75.615 300.941,78.894 308.000 C 81.953 314.587,82.095 314.828,83.260 315.431 C 84.731 316.192,85.465 316.149,86.979 315.213 C 88.188 314.466,99.018 303.101,102.742 298.672 C 103.700 297.532,106.945 293.900,109.954 290.600 C 112.962 287.300,117.034 282.710,119.001 280.400 C 127.205 270.769,136.846 262.000,139.232 262.000 C 143.500 262.000,139.077 269.282,124.653 286.000 C 122.850 288.090,120.548 290.880,119.538 292.200 C 118.527 293.520,116.270 296.220,114.522 298.200 C 112.774 300.180,109.827 303.616,107.972 305.836 C 106.117 308.056,102.315 312.326,99.521 315.326 C 87.063 328.703,87.123 330.250,100.028 328.416 C 115.578 326.207,129.009 321.226,139.521 313.770 C 145.671 309.408,146.534 309.172,151.092 310.600 C 154.991 311.822,154.746 311.814,168.800 311.224 C 188.820 310.383,253.954 309.826,265.356 310.398 C 277.323 310.998,278.328 310.896,281.707 308.730 C 285.064 306.578,296.269 292.465,300.187 285.453 C 306.176 274.732,310.963 280.069,305.485 291.359 C 302.808 296.876,299.429 302.224,296.234 306.000 C 294.651 307.870,292.344 310.750,291.106 312.400 C 288.848 315.410,274.296 330.039,268.078 335.550 C 262.713 340.305,264.067 341.937,271.774 340.007 C 281.868 337.478,308.526 327.100,318.843 321.684 C 323.478 319.250,325.473 318.870,328.982 319.751 C 330.548 320.145,334.092 320.478,338.074 320.606 C 350.269 320.998,354.400 322.797,354.400 327.718 C 354.400 330.874,350.835 331.531,341.114 330.167 C 328.285 328.367,324.908 329.341,325.986 334.531 C 326.838 338.637,326.101 339.504,317.273 344.769 C 310.584 348.760,296.310 358.194,290.600 362.398 C 288.620 363.856,285.110 366.321,282.800 367.877 C 280.490 369.432,277.198 371.851,275.485 373.252 C 268.034 379.346,264.067 382.424,262.193 383.564 C 257.477 386.433,246.757 387.679,241.200 386.003 C 238.311 385.132,237.245 385.079,212.400 384.575 C 187.618 384.072,177.001 383.758,152.600 382.807 C 146.440 382.567,139.510 382.300,137.200 382.214 C 134.890 382.129,118.330 381.867,100.400 381.632 C 13.720 380.497,5.600 379.740,5.600 372.802 C 5.600 369.755,6.775 368.395,15.411 361.446 C 19.817 357.901,25.600 353.178,28.262 350.951 C 37.243 343.437,51.871 332.914,59.656 328.367 C 62.873 326.488,63.606 325.564,63.584 323.411 C 63.566 321.712,63.541 321.670,58.966 315.750 C 51.366 305.912,39.988 286.744,33.236 272.400 C 31.631 268.990,30.047 265.660,29.716 265.000 C 29.000 263.571,25.926 255.423,24.510 251.200 C 21.478 242.154,24.058 236.088,29.800 238.763 M41.200 269.741 C 41.200 271.230,47.514 284.735,50.391 289.400 C 51.205 290.720,52.920 293.600,54.203 295.800 C 59.933 305.629,68.791 317.533,70.063 317.115 C 71.912 316.507,69.750 311.249,62.777 299.400 C 52.100 281.255,41.200 266.273,41.200 269.741 M199.400 320.425 C 183.173 320.719,177.082 321.216,178.034 322.167 C 178.693 322.826,193.719 323.990,201.642 323.996 C 210.538 324.003,220.949 324.956,229.200 326.519 C 234.895 327.598,255.312 327.822,260.086 326.857 C 267.137 325.433,268.864 321.268,262.768 320.387 C 259.889 319.971,223.222 319.993,199.400 320.425 M66.634 332.433 C 65.780 332.891,62.992 334.859,60.440 336.807 C 47.884 346.389,46.015 347.851,43.600 349.981 C 42.170 351.242,39.460 353.518,37.578 355.037 C 25.086 365.123,23.396 366.967,25.170 368.573 C 26.672 369.932,26.865 369.938,115.000 371.210 C 130.400 371.432,149.660 371.882,157.800 372.209 C 177.378 372.995,201.383 373.595,214.000 373.613 C 229.651 373.635,237.736 374.132,243.200 375.407 C 253.045 377.704,255.545 376.862,267.449 367.235 C 270.282 364.944,274.130 362.081,276.000 360.873 C 300.591 344.981,304.349 341.996,300.164 341.682 C 298.543 341.560,297.608 341.822,288.400 344.982 C 255.458 356.288,239.642 355.251,245.999 342.201 C 248.023 338.047,247.175 337.457,238.600 337.053 C 235.960 336.929,228.940 336.180,223.000 335.388 C 213.147 334.076,210.902 333.918,197.400 333.586 C 189.260 333.386,181.160 333.023,179.400 332.780 C 174.786 332.142,130.795 331.779,127.506 332.352 C 126.105 332.596,122.399 333.521,119.269 334.408 C 116.140 335.295,111.379 336.380,108.690 336.820 C 106.000 337.260,101.730 337.972,99.200 338.401 C 78.931 341.842,75.515 341.452,72.764 335.385 C 70.934 331.348,69.735 330.771,66.634 332.433 " stroke="none" fill="none" fill-rule="evenodd"></path></g></svg>
